<svg xmlns="http://www.w3.org/2000/svg" xmlns:xlink="http://www.w3.org/1999/xlink" width="30" zoomAndPan="magnify" viewBox="0 0 22.5 25.499999" height="34" preserveAspectRatio="xMidYMid meet" version="1.0"><defs><g/><clipPath id="f8d5921d6a"><path d="M 0.636719 0.03125 L 21.320312 0.03125 L 21.320312 20.714844 L 0.636719 20.714844 Z M 0.636719 0.03125 " clip-rule="nonzero"/></clipPath><clipPath id="8ec809e378"><path d="M 10.976562 0.03125 C 5.265625 0.03125 0.636719 4.664062 0.636719 10.375 C 0.636719 16.085938 5.265625 20.714844 10.976562 20.714844 C 16.691406 20.714844 21.320312 16.085938 21.320312 10.375 C 21.320312 4.664062 16.691406 0.03125 10.976562 0.03125 Z M 10.976562 0.03125 " clip-rule="nonzero"/></clipPath></defs><g clip-path="url(#f8d5921d6a)"><g clip-path="url(#8ec809e378)"><path fill="#0866ff" d="M 0.636719 0.03125 L 21.320312 0.03125 L 21.320312 20.714844 L 0.636719 20.714844 Z M 0.636719 0.03125 " fill-opacity="1" fill-rule="nonzero"/></g></g><g fill="#ffffff" fill-opacity="1"><g transform="translate(5.206304, 16.054686)"><g><path d="M 6.015625 0.171875 C 5.160156 0.171875 4.390625 0.0195312 3.703125 -0.28125 C 3.015625 -0.582031 2.425781 -1 1.9375 -1.53125 C 1.445312 -2.070312 1.066406 -2.691406 0.796875 -3.390625 C 0.535156 -4.097656 0.40625 -4.859375 0.40625 -5.671875 C 0.40625 -6.472656 0.535156 -7.222656 0.796875 -7.921875 C 1.066406 -8.628906 1.445312 -9.25 1.9375 -9.78125 C 2.425781 -10.320312 3.015625 -10.742188 3.703125 -11.046875 C 4.390625 -11.347656 5.160156 -11.5 6.015625 -11.5 C 6.859375 -11.5 7.628906 -11.378906 8.328125 -11.140625 C 9.035156 -10.910156 9.613281 -10.546875 10.0625 -10.046875 C 9.96875 -9.804688 9.875 -9.554688 9.78125 -9.296875 C 9.6875 -9.035156 9.601562 -8.796875 9.53125 -8.578125 C 9.46875 -8.359375 9.414062 -8.179688 9.375 -8.046875 C 9.332031 -7.910156 9.3125 -7.84375 9.3125 -7.84375 C 9.3125 -7.84375 9.253906 -7.910156 9.140625 -8.046875 C 9.035156 -8.191406 8.867188 -8.359375 8.640625 -8.546875 C 8.410156 -8.734375 8.113281 -8.898438 7.75 -9.046875 C 7.394531 -9.191406 6.960938 -9.265625 6.453125 -9.265625 C 5.847656 -9.265625 5.285156 -9.128906 4.765625 -8.859375 C 4.253906 -8.585938 3.835938 -8.1875 3.515625 -7.65625 C 3.203125 -7.125 3.046875 -6.457031 3.046875 -5.65625 C 3.046875 -4.851562 3.203125 -4.1875 3.515625 -3.65625 C 3.835938 -3.132812 4.253906 -2.738281 4.765625 -2.46875 C 5.285156 -2.207031 5.847656 -2.078125 6.453125 -2.078125 C 6.960938 -2.078125 7.394531 -2.148438 7.75 -2.296875 C 8.113281 -2.441406 8.410156 -2.601562 8.640625 -2.78125 C 8.867188 -2.96875 9.035156 -3.132812 9.140625 -3.28125 C 9.253906 -3.425781 9.3125 -3.5 9.3125 -3.5 C 9.3125 -3.5 9.332031 -3.429688 9.375 -3.296875 C 9.414062 -3.160156 9.46875 -2.976562 9.53125 -2.75 C 9.601562 -2.53125 9.6875 -2.289062 9.78125 -2.03125 C 9.875 -1.78125 9.96875 -1.535156 10.0625 -1.296875 C 9.613281 -0.796875 9.035156 -0.425781 8.328125 -0.1875 C 7.628906 0.0507812 6.859375 0.171875 6.015625 0.171875 Z M 6.015625 0.171875 "/></g></g></g></svg>